<?xml version="1.0" encoding="UTF-8"?>
<svg width="14px" height="14px" viewBox="0 0 14 14" version="1.1" xmlns="http://www.w3.org/2000/svg" xmlns:xlink="http://www.w3.org/1999/xlink">
    <!-- Generator: Sketch 60.1 (88133) - https://sketch.com -->
    <title>icon/collect/hover copy</title>
    <desc>Created with Sketch.</desc>
    <g id="StandAlone" stroke="none" stroke-width="1" fill="none" fill-rule="evenodd">
        <g id="医学工具" transform="translate(-965.000000, -1015.000000)" fill="#ACB4C1">
            <g id="分组-29-copy-3复制" transform="translate(964.000000, 1012.000000)">
                <g id="icon/collect/hover-copy-2" transform="translate(0.000000, 2.000000)">
                    <path d="M8.00013004,12.8136054 C7.83819496,12.8136054 4.11908162,15.3046623 3.67774526,14.9679825 C3.2364089,14.6313027 4.3366253,10.1254723 4.29343453,9.98589939 C4.25024376,9.84632645 0.83321183,6.89484545 1.00636455,6.33529457 C1.17951728,5.77574369 5.57890263,5.51002477 5.70926623,5.41057502 C5.83962983,5.31112527 7.47173732,1 8.00013004,1 C8.52852276,1 10.1587041,5.30965589 10.2909938,5.41057502 C10.4232836,5.51149415 14.8248664,5.78906917 14.9938955,6.33529457 C15.1629247,6.88151996 11.7660921,9.79437699 11.7068255,9.98589939 C11.647559,10.1774218 12.7695235,14.6269755 12.3225148,14.9679825 C11.8755061,15.3089896 8.16206512,12.8136054 8.00013004,12.8136054 Z" id="collect"></path>
                </g>
            </g>
        </g>
    </g>
</svg>